<svg width="176" height="52" viewBox="0 0 176 52" fill="none" xmlns="http://www.w3.org/2000/svg">
<path d="M12.843 0.845241C12.3929 0.170057 11.9991 0.423269 11.8303 0.845241C10.0299 3.79905 5.75583 9.6616 4.82555 11.057C3.47524 13.0824 4.00974 14.6015 4.40358 15.6987L11.4083 27.7671C10.5081 24.9539 8.20133 19.412 7.61057 17.8085C6.76663 16.205 7.1886 16.1206 7.61057 15.1923C8.51078 13.9545 10.5306 11.1245 11.4083 9.70667C12.286 8.28884 12.9556 9.11591 13.1806 9.70667C15.0654 12.9418 19.0207 19.6483 19.7634 20.5936C20.506 21.5388 20.0728 22.5065 19.7634 22.8722L15.7968 29.5394C17.6816 27.1201 21.7213 21.9439 22.8016 20.5936C23.8818 19.2432 23.2517 17.6116 22.8016 16.9646C19.6508 12.0134 13.5182 1.858 12.843 0.845241Z" fill="#01912D"/>
<path d="M11.7467 51.4116C12.2469 52.0724 12.6847 51.8245 12.8723 51.4116C14.8734 48.5206 22.603 37.1087 23.4768 35.6354C24.3506 34.1621 24.1519 33.5903 23.7299 32.6619L19.7634 27.0075C20.764 29.7607 21.3854 30.6706 22.042 32.24C22.6423 33.6747 21.772 34.9406 21.1981 35.6354C20.1976 36.8468 16.688 42.4143 15.7125 43.802C13.9325 46.3338 13.7859 46.5026 11.9991 43.802C9.9042 40.6357 4.71338 33.1342 4.05492 32.0837C3.30648 30.8896 3.30648 30.8052 3.72845 29.7925L6.68226 22.8722C3.76716 26.5855 1.6186 30.1301 0.437075 31.818C-0.586861 33.2807 0.443165 35.0021 0.943441 35.6354C4.44538 40.4811 10.9963 50.4204 11.7467 51.4116Z" fill="#565656"/>
<path d="M65.8783 18.8002V23.4339C65.8783 25.6442 64.094 27.4285 61.8837 27.4285H50.4859C48.2755 27.4285 46.4913 25.6442 46.4913 23.4339V16.723C46.4913 14.5127 48.2755 12.7285 50.4859 12.7285H65.8783V15.285H49.0478V24.8719H63.3217V21.3567H55.8386V18.8002H65.8783ZM88.51 24.3926V27.4285H85.9535V22.9546H71.6795V27.4285H69.123V12.7285H84.5154C86.7257 12.7285 88.51 14.5127 88.51 16.723V18.96C88.51 20.2116 87.8708 21.1437 86.8855 21.6763C87.8708 22.2089 88.51 23.141 88.51 24.3926ZM71.6795 20.398H85.9535V15.285H71.6795V20.398ZM111.142 24.8719V27.4285H95.7493C93.539 27.4285 91.7547 25.6442 91.7547 23.4339V16.723C91.7547 14.5127 93.539 12.7285 95.7493 12.7285H111.142V15.285H94.3112V18.8002H111.142V21.3567H94.3112V24.8719H111.142ZM133.773 24.8719V27.4285H118.381C116.171 27.4285 114.386 25.6442 114.386 23.4339V16.723C114.386 14.5127 116.171 12.7285 118.381 12.7285H133.773V15.285H116.943V18.8002H133.773V21.3567H116.943V24.8719H133.773ZM154.008 12.7285H156.565V24.7921C156.565 26.3899 155.287 27.6681 153.689 27.6681C152.89 27.6681 152.197 27.3752 151.638 26.816L139.575 14.566V27.4285H137.018V15.3649C137.018 13.7671 138.296 12.4888 139.894 12.4888C140.693 12.4888 141.386 12.7817 141.945 13.341L154.008 25.591V12.7285Z" fill="#6D6D6D"/>
<path d="M174.4 13.7V14.18C174.4 15.74 173.06 17 171.4 17H162.84C161.18 17 159.84 15.74 159.84 14.18V13.7C159.84 12.8 160.3 11.98 161 11.48C160.3 10.94 159.88 10.16 159.88 9.26V8.78C159.88 7.22 161.18 5.96 162.84 5.96H171.4C173.06 5.96 174.34 7.22 174.34 8.78V9.26C174.34 10.16 173.92 10.94 173.22 11.48C173.94 11.98 174.4 12.8 174.4 13.7ZM161.76 10.52H172.48V7.88H161.76V10.52ZM161.76 15.08H172.48V12.44H161.76V15.08Z" fill="#6D6D6D"/>
<path d="M46.9611 34.041H51.8137V34.4182H46.9611V34.041ZM47.0366 38.4285H46.6091V29.6285H52.3794V30.0182H47.0366V38.4285ZM58.9277 38.4285V29.6285H59.3551V38.4285H58.9277ZM68.6459 38.4285V30.0182H65.415V29.6285H72.2916V30.0182H69.0607V38.4285H68.6459ZM78.3471 38.4285V29.6285H78.6991L85.1608 37.9256H84.9471V29.6285H85.3745V38.4285H85.0225L78.5608 30.1313H78.7745V38.4285H78.3471ZM93.3502 33.7645H98.2028V34.1542H93.3502V33.7645ZM93.4256 38.0388H98.9445V38.4285H92.9982V29.6285H98.7685V30.0182H93.4256V38.0388ZM108.021 38.4788C107.375 38.4788 106.764 38.3656 106.185 38.1393C105.615 37.9047 105.18 37.6113 104.878 37.2593L105.104 36.9576C105.389 37.2761 105.791 37.5485 106.311 37.7748C106.839 37.9927 107.405 38.1016 108.008 38.1016C108.62 38.1016 109.123 38.0178 109.517 37.8502C109.911 37.6826 110.2 37.4605 110.384 37.1839C110.577 36.8989 110.673 36.5847 110.673 36.241C110.673 35.8388 110.573 35.5161 110.372 35.273C110.17 35.03 109.902 34.8372 109.567 34.6948C109.24 34.5523 108.88 34.4349 108.486 34.3428C108.1 34.2506 107.706 34.1542 107.304 34.0536C106.91 33.9447 106.546 33.8106 106.21 33.6513C105.884 33.4837 105.62 33.2574 105.418 32.9725C105.226 32.6791 105.129 32.302 105.129 31.841C105.129 31.4471 105.234 31.0784 105.444 30.7348C105.653 30.3911 105.98 30.1146 106.424 29.905C106.868 29.6871 107.438 29.5782 108.134 29.5782C108.612 29.5782 109.081 29.6536 109.542 29.8045C110.011 29.9469 110.409 30.1397 110.736 30.3828L110.548 30.7222C110.196 30.4624 109.806 30.2696 109.378 30.1439C108.951 30.0182 108.54 29.9553 108.146 29.9553C107.56 29.9553 107.069 30.0433 106.676 30.2193C106.29 30.3869 106.005 30.6132 105.821 30.8982C105.636 31.1831 105.544 31.4974 105.544 31.841C105.544 32.2517 105.645 32.5786 105.846 32.8216C106.047 33.0647 106.311 33.2574 106.638 33.3999C106.973 33.5424 107.338 33.6597 107.732 33.7519C108.125 33.8441 108.519 33.9447 108.913 34.0536C109.307 34.1542 109.668 34.2883 109.994 34.4559C110.33 34.6235 110.594 34.8498 110.786 35.1348C110.988 35.4113 111.088 35.7759 111.088 36.2285C111.088 36.6224 110.979 36.9911 110.761 37.3348C110.552 37.6784 110.216 37.9549 109.756 38.1645C109.303 38.374 108.725 38.4788 108.021 38.4788ZM120.008 38.4788C119.362 38.4788 118.751 38.3656 118.172 38.1393C117.602 37.9047 117.167 37.6113 116.865 37.2593L117.091 36.9576C117.376 37.2761 117.778 37.5485 118.298 37.7748C118.826 37.9927 119.392 38.1016 119.995 38.1016C120.607 38.1016 121.11 38.0178 121.504 37.8502C121.898 37.6826 122.187 37.4605 122.371 37.1839C122.564 36.8989 122.66 36.5847 122.66 36.241C122.66 35.8388 122.56 35.5161 122.359 35.273C122.157 35.03 121.889 34.8372 121.554 34.6948C121.227 34.5523 120.867 34.4349 120.473 34.3428C120.087 34.2506 119.693 34.1542 119.291 34.0536C118.897 33.9447 118.533 33.8106 118.197 33.6513C117.871 33.4837 117.607 33.2574 117.405 32.9725C117.213 32.6791 117.116 32.302 117.116 31.841C117.116 31.4471 117.221 31.0784 117.431 30.7348C117.64 30.3911 117.967 30.1146 118.411 29.905C118.855 29.6871 119.425 29.5782 120.121 29.5782C120.599 29.5782 121.068 29.6536 121.529 29.8045C121.998 29.9469 122.396 30.1397 122.723 30.3828L122.535 30.7222C122.183 30.4624 121.793 30.2696 121.365 30.1439C120.938 30.0182 120.527 29.9553 120.133 29.9553C119.547 29.9553 119.056 30.0433 118.663 30.2193C118.277 30.3869 117.992 30.6132 117.808 30.8982C117.623 31.1831 117.531 31.4974 117.531 31.841C117.531 32.2517 117.632 32.5786 117.833 32.8216C118.034 33.0647 118.298 33.2574 118.625 33.3999C118.96 33.5424 119.325 33.6597 119.719 33.7519C120.112 33.8441 120.506 33.9447 120.9 34.0536C121.294 34.1542 121.655 34.2883 121.981 34.4559C122.317 34.6235 122.581 34.8498 122.773 35.1348C122.975 35.4113 123.075 35.7759 123.075 36.2285C123.075 36.6224 122.966 36.9911 122.748 37.3348C122.539 37.6784 122.204 37.9549 121.743 38.1645C121.29 38.374 120.712 38.4788 120.008 38.4788ZM141.033 38.4788C140.379 38.4788 139.771 38.3698 139.21 38.1519C138.657 37.9256 138.171 37.6113 137.752 37.209C137.341 36.8068 137.022 36.3374 136.796 35.801C136.57 35.2563 136.457 34.6654 136.457 34.0285C136.457 33.3915 136.57 32.8048 136.796 32.2685C137.022 31.7237 137.341 31.2502 137.752 30.8479C138.171 30.4456 138.657 30.1355 139.21 29.9176C139.771 29.6913 140.379 29.5782 141.033 29.5782C141.645 29.5782 142.219 29.6746 142.755 29.8673C143.291 30.0601 143.748 30.3492 144.125 30.7348L143.874 31.0239C143.472 30.6384 143.036 30.366 142.566 30.2068C142.097 30.0475 141.59 29.9679 141.045 29.9679C140.45 29.9679 139.897 30.0727 139.386 30.2822C138.883 30.4833 138.443 30.7683 138.066 31.137C137.689 31.5058 137.395 31.9374 137.186 32.4319C136.985 32.918 136.884 33.4502 136.884 34.0285C136.884 34.6068 136.985 35.1431 137.186 35.6376C137.395 36.1237 137.689 36.5511 138.066 36.9199C138.443 37.2887 138.883 37.5778 139.386 37.7873C139.897 37.9885 140.45 38.089 141.045 38.089C141.582 38.089 142.089 38.0094 142.566 37.8502C143.053 37.6826 143.484 37.4102 143.861 37.033L144.113 37.3473C143.727 37.7245 143.266 38.0094 142.73 38.2022C142.194 38.3866 141.628 38.4788 141.033 38.4788ZM143.71 37.3222V34.0913H144.113V37.3473L143.71 37.3222ZM153.534 38.4285V35.2982L153.635 35.5873L149.976 29.6285H150.441L153.861 35.185H153.647L157.079 29.6285H157.532L153.861 35.5873L153.961 35.2982V38.4285H153.534ZM163.398 38.4285V29.6285H163.75L167.899 36.8319H167.71L171.834 29.6285H172.186L172.198 38.4285H171.783L171.771 30.257H171.909L167.911 37.209H167.685L163.662 30.257H163.813V38.4285H163.398Z" fill="#F5F5F5" fill-opacity="0.8"/>
</svg>
