<svg width="134" height="40" viewBox="0 0 134 40" fill="none" xmlns="http://www.w3.org/2000/svg">
<path d="M9.66006 0.642461C9.32152 0.129275 9.02528 0.321733 8.89832 0.642461C7.54413 2.88756 4.32938 7.34349 3.62967 8.40408C2.61402 9.94353 3.01605 11.0982 3.31228 11.9321L8.58094 21.1049C7.90384 18.9667 6.16878 14.7544 5.72444 13.5357C5.08966 12.3169 5.40705 12.2528 5.72444 11.5472C6.40153 10.6064 7.92077 8.45539 8.58094 7.37775C9.2411 6.30011 9.74469 6.92873 9.91397 7.37775C11.3316 9.83666 14.3066 14.9341 14.8652 15.6525C15.4238 16.371 15.098 17.1065 14.8652 17.3845L11.8818 22.452C13.2995 20.6131 16.3379 16.6789 17.1504 15.6525C17.963 14.6262 17.489 13.386 17.1504 12.8943C14.7806 9.13106 10.1679 1.41222 9.66006 0.642461Z" fill="#01912D"/>
<path d="M8.83543 39.0762C9.21171 39.5785 9.54097 39.3901 9.68207 39.0762C11.1872 36.8789 17.001 28.2051 17.6583 27.0852C18.3155 25.9654 18.1661 25.5308 17.8487 24.8252L14.8653 20.5274C15.6178 22.6201 16.0853 23.3117 16.5792 24.5045C17.0307 25.5949 16.376 26.5571 15.9444 27.0852C15.1918 28.006 12.5521 32.2377 11.8183 33.2924C10.4795 35.2168 10.3693 35.3451 9.0253 33.2924C7.4496 30.8858 3.54529 25.1842 3.05003 24.3857C2.48709 23.4781 2.48709 23.414 2.80448 22.6442L5.0262 17.3843C2.83359 20.2067 1.21753 22.9008 0.328844 24.1837C-0.441315 25.2955 0.333426 26.6039 0.709711 27.0852C3.34371 30.7683 8.27102 38.3228 8.83543 39.0762Z" fill="#565656"/>
<path d="M49.4298 15.0995V18.5765C49.4298 20.2351 48.091 21.574 46.4324 21.574H37.8797C36.2211 21.574 34.8822 20.2351 34.8822 18.5765V13.5408C34.8822 11.8822 36.2211 10.5434 37.8797 10.5434H49.4298V12.4618H36.8006V19.6556H47.5114V17.0179H41.8962V15.0995H49.4298ZM66.4122 19.2959V21.574H64.4938V18.2168H53.783V21.574H51.8646V10.5434H63.4147C65.0733 10.5434 66.4122 11.8822 66.4122 13.5408V15.2194C66.4122 16.1586 65.9326 16.858 65.1932 17.2577C65.9326 17.6573 66.4122 18.3567 66.4122 19.2959ZM53.783 16.2985H64.4938V12.4618H53.783V16.2985ZM83.3946 19.6556V21.574H71.8444C70.1858 21.574 68.847 20.2351 68.847 18.5765V13.5408C68.847 11.8822 70.1858 10.5434 71.8444 10.5434H83.3946V12.4618H70.7653V15.0995H83.3946V17.0179H70.7653V19.6556H83.3946ZM100.377 19.6556V21.574H88.8268C87.1682 21.574 85.8294 20.2351 85.8294 18.5765V13.5408C85.8294 11.8822 87.1682 10.5434 88.8268 10.5434H100.377V12.4618H87.7477V15.0995H100.377V17.0179H87.7477V19.6556H100.377ZM115.561 10.5434H117.479V19.5957C117.479 20.7946 116.52 21.7538 115.321 21.7538C114.722 21.7538 114.202 21.534 113.782 21.1144L104.73 11.9222V21.574H102.812V12.5217C102.812 11.3227 103.771 10.3635 104.97 10.3635C105.569 10.3635 106.089 10.5834 106.509 11.003L115.561 20.1952V10.5434Z" fill="#6D6D6D"/>
<path d="M131.149 10.5237V10.8839C131.149 12.0545 130.143 13 128.897 13H122.474C121.229 13 120.223 12.0545 120.223 10.8839V10.5237C120.223 9.8484 120.568 9.23309 121.094 8.8579C120.568 8.4527 120.253 7.8674 120.253 7.19206V6.83188C120.253 5.66129 121.229 4.71581 122.474 4.71581H128.897C130.143 4.71581 131.104 5.66129 131.104 6.83188V7.19206C131.104 7.8674 130.788 8.4527 130.263 8.8579C130.803 9.23309 131.149 9.8484 131.149 10.5237ZM121.664 8.13754H129.708V6.15654H121.664V8.13754ZM121.664 11.5593H129.708V9.57827H121.664V11.5593Z" fill="#6D6D6D"/>
<path d="M36.2372 27.385H39.8785V27.668H36.2372V27.385ZM36.2938 30.6772H35.9731V24.0739H40.303V24.3663H36.2938V30.6772ZM45.2167 30.6772V24.0739H45.5374V30.6772H45.2167ZM52.509 30.6772V24.3663H50.0846V24.0739H55.2447V24.3663H52.8203V30.6772H52.509ZM59.7886 30.6772V24.0739H60.0527L64.9015 30.2999H64.7411V24.0739H65.0618V30.6772H64.7977L59.949 24.4512H60.1093V30.6772H59.7886ZM71.0466 27.1775H74.6879V27.4699H71.0466V27.1775ZM71.1032 30.3848H75.2445V30.6772H70.7825V24.0739H75.1124V24.3663H71.1032V30.3848ZM82.0551 30.715C81.5708 30.715 81.1117 30.6301 80.6778 30.4603C80.2501 30.2842 79.9231 30.0641 79.6967 29.7999L79.8665 29.5735C80.0803 29.8125 80.3822 30.0169 80.7721 30.1867C81.1683 30.3502 81.5928 30.432 82.0456 30.432C82.5047 30.432 82.882 30.3691 83.1776 30.2433C83.4732 30.1175 83.6902 29.9509 83.8285 29.7433C83.9732 29.5295 84.0455 29.2937 84.0455 29.0358C84.0455 28.734 83.97 28.4919 83.8191 28.3095C83.6682 28.1271 83.4669 27.9825 83.2154 27.8755C82.9701 27.7686 82.6997 27.6806 82.4041 27.6114C82.1148 27.5422 81.8192 27.4699 81.5174 27.3944C81.2218 27.3127 80.9482 27.2121 80.6967 27.0926C80.4514 26.9668 80.2533 26.797 80.1024 26.5832C79.9577 26.3631 79.8854 26.0801 79.8854 25.7342C79.8854 25.4386 79.964 25.1619 80.1212 24.904C80.2784 24.6462 80.5237 24.4387 80.857 24.2814C81.1903 24.1179 81.618 24.0362 82.14 24.0362C82.4984 24.0362 82.8506 24.0928 83.1965 24.206C83.5487 24.3129 83.8474 24.4575 84.0927 24.6399L83.9512 24.8946C83.687 24.6996 83.3946 24.555 83.0739 24.4607C82.7531 24.3663 82.445 24.3192 82.1494 24.3192C81.7092 24.3192 81.3413 24.3852 81.0457 24.5173C80.7564 24.643 80.5426 24.8128 80.4042 25.0267C80.2659 25.2405 80.1967 25.4763 80.1967 25.7342C80.1967 26.0423 80.2722 26.2876 80.4231 26.47C80.574 26.6524 80.7721 26.797 81.0174 26.9039C81.2689 27.0108 81.5425 27.0989 81.8381 27.168C82.1337 27.2372 82.4292 27.3127 82.7248 27.3944C83.0204 27.4699 83.2908 27.5705 83.5361 27.6963C83.7876 27.8221 83.9857 27.9919 84.1304 28.2057C84.2813 28.4132 84.3568 28.6868 84.3568 29.0264C84.3568 29.322 84.275 29.5987 84.1115 29.8565C83.9543 30.1144 83.7027 30.3219 83.3569 30.4791C83.0173 30.6364 82.5833 30.715 82.0551 30.715ZM91.0499 30.715C90.5657 30.715 90.1066 30.6301 89.6726 30.4603C89.245 30.2842 88.918 30.0641 88.6916 29.7999L88.8614 29.5735C89.0752 29.8125 89.3771 30.0169 89.767 30.1867C90.1632 30.3502 90.5877 30.432 91.0405 30.432C91.4996 30.432 91.8769 30.3691 92.1725 30.2433C92.468 30.1175 92.685 29.9509 92.8234 29.7433C92.968 29.5295 93.0403 29.2937 93.0403 29.0358C93.0403 28.734 92.9649 28.4919 92.8139 28.3095C92.663 28.1271 92.4618 27.9825 92.2102 27.8755C91.9649 27.7686 91.6945 27.6806 91.3989 27.6114C91.1096 27.5422 90.8141 27.4699 90.5122 27.3944C90.2166 27.3127 89.9431 27.2121 89.6915 27.0926C89.4462 26.9668 89.2481 26.797 89.0972 26.5832C88.9526 26.3631 88.8802 26.0801 88.8802 25.7342C88.8802 25.4386 88.9588 25.1619 89.1161 24.904C89.2733 24.6462 89.5186 24.4387 89.8519 24.2814C90.1852 24.1179 90.6128 24.0362 91.1348 24.0362C91.4933 24.0362 91.8454 24.0928 92.1913 24.206C92.5435 24.3129 92.8422 24.4575 93.0875 24.6399L92.946 24.8946C92.6819 24.6996 92.3894 24.555 92.0687 24.4607C91.748 24.3663 91.4398 24.3192 91.1442 24.3192C90.704 24.3192 90.3361 24.3852 90.0405 24.5173C89.7512 24.643 89.5374 24.8128 89.3991 25.0267C89.2607 25.2405 89.1915 25.4763 89.1915 25.7342C89.1915 26.0423 89.267 26.2876 89.4179 26.47C89.5689 26.6524 89.767 26.797 90.0122 26.9039C90.2638 27.0108 90.5374 27.0989 90.8329 27.168C91.1285 27.2372 91.4241 27.3127 91.7197 27.3944C92.0152 27.4699 92.2857 27.5705 92.5309 27.6963C92.7825 27.8221 92.9806 27.9919 93.1252 28.2057C93.2762 28.4132 93.3516 28.6868 93.3516 29.0264C93.3516 29.322 93.2699 29.5987 93.1064 29.8565C92.9491 30.1144 92.6976 30.3219 92.3517 30.4791C92.0121 30.6364 91.5782 30.715 91.0499 30.715ZM106.827 30.715C106.336 30.715 105.88 30.6332 105.459 30.4697C105.044 30.2999 104.679 30.0641 104.365 29.7622C104.056 29.4603 103.817 29.1082 103.648 28.7057C103.478 28.2969 103.393 27.8535 103.393 27.3756C103.393 26.8976 103.478 26.4574 103.648 26.0549C103.817 25.6461 104.056 25.2908 104.365 24.9889C104.679 24.6871 105.044 24.4544 105.459 24.2909C105.88 24.1211 106.336 24.0362 106.827 24.0362C107.286 24.0362 107.717 24.1085 108.119 24.2531C108.522 24.3978 108.864 24.6147 109.147 24.904L108.959 25.121C108.657 24.8317 108.33 24.6273 107.978 24.5078C107.625 24.3883 107.245 24.3286 106.836 24.3286C106.39 24.3286 105.975 24.4072 105.591 24.5644C105.214 24.7154 104.883 24.9292 104.6 25.2059C104.317 25.4826 104.097 25.8065 103.94 26.1775C103.789 26.5423 103.714 26.9416 103.714 27.3756C103.714 27.8095 103.789 28.212 103.94 28.583C104.097 28.9478 104.317 29.2685 104.6 29.5452C104.883 29.822 105.214 30.0389 105.591 30.1961C105.975 30.3471 106.39 30.4225 106.836 30.4225C107.239 30.4225 107.619 30.3628 107.978 30.2433C108.342 30.1175 108.666 29.9131 108.949 29.6301L109.138 29.866C108.849 30.149 108.503 30.3628 108.1 30.5074C107.698 30.6458 107.273 30.715 106.827 30.715ZM108.836 29.8471V27.4227H109.138V29.866L108.836 29.8471ZM116.207 30.6772V28.3283L116.283 28.5453L113.538 24.0739H113.887L116.453 28.2434H116.292L118.868 24.0739H119.207L116.453 28.5453L116.528 28.3283V30.6772H116.207ZM123.609 30.6772V24.0739H123.873L126.986 29.4792H126.845L129.939 24.0739H130.203L130.213 30.6772H129.901L129.892 24.5456H129.996L126.996 29.7622H126.826L123.807 24.5456H123.921V30.6772H123.609Z" fill="#F5F5F5" fill-opacity="0.8"/>
</svg>
