<svg width="23" height="24" viewBox="0 0 23 24" fill="none" xmlns="http://www.w3.org/2000/svg">
<g id="Rating star (hover)">
<path id="Star" d="M10.4175 2.08795C10.7675 1.29017 11.8992 1.29017 12.2491 2.08795L14.3169 6.80247C14.4579 7.12397 14.7572 7.34798 15.1054 7.39267L20.072 8.03001C20.8995 8.1362 21.2408 9.14931 20.6462 9.73456L16.9071 13.4148C16.6704 13.6478 16.5649 13.983 16.6253 14.3095L17.5956 19.5511C17.7517 20.3943 16.8436 21.03 16.1047 20.5947L11.8409 18.083C11.5277 17.8985 11.139 17.8985 10.8258 18.083L6.56193 20.5947C5.82307 21.03 4.91499 20.3943 5.07108 19.5511L6.04137 14.3095C6.10181 13.983 5.99622 13.6478 5.75955 13.4148L2.0205 9.73456C1.4259 9.14931 1.76718 8.1362 2.5947 8.03001L7.56123 7.39267C7.90944 7.34798 8.20872 7.12397 8.34973 6.80247L10.4175 2.08795Z" fill="#FDB022"/>
</g>
</svg>
