<svg width="23" height="24" viewBox="0 0 23 24" fill="none" xmlns="http://www.w3.org/2000/svg">
<g id="Rating star (hover)">
<path id="Star" d="M10.751 2.08795C11.101 1.29017 12.2327 1.29017 12.5826 2.08795L14.6504 6.80247C14.7914 7.12397 15.0907 7.34798 15.4389 7.39267L20.4055 8.03001C21.233 8.1362 21.5743 9.14931 20.9797 9.73456L17.2406 13.4148C17.0039 13.6478 16.8984 13.983 16.9588 14.3095L17.9291 19.5511C18.0852 20.3943 17.1771 21.03 16.4382 20.5947L12.1744 18.083C11.8612 17.8985 11.4725 17.8985 11.1593 18.083L6.89543 20.5947C6.15656 21.03 5.24848 20.3943 5.40457 19.5511L6.37486 14.3095C6.43531 13.983 6.32972 13.6478 6.09305 13.4148L2.354 9.73456C1.7594 9.14931 2.10068 8.1362 2.9282 8.03001L7.89473 7.39267C8.24294 7.34798 8.54222 7.12397 8.68323 6.80247L10.751 2.08795Z" fill="#D0D5DD"/>
</g>
</svg>
